<?xml version="1.0" encoding="UTF-8"?><svg id="Layer_2" xmlns="http://www.w3.org/2000/svg" viewBox="0 0 412.19 222.81"><defs><style>.cls-1{fill:#eb529c;}.cls-1,.cls-2,.cls-3,.cls-4,.cls-5,.cls-6{fill-rule:evenodd;}.cls-7,.cls-4{fill:#0a0b2f;}.cls-2{fill:#072d71;}.cls-3{fill:#02b9d7;}.cls-5{fill:#f39324;}.cls-6{fill:#096d2a;}</style></defs><g id="Layer_1-2"><path class="cls-3" d="m236.6,143.58l-.14.46c4.17,7.02,14.55,12.33,25.04,12.12,5.7-.11,10.39-1.62,14.43-3.89,5.06-2.85,10.29-8.52,10.29-8.52-3.53-2.61-6.29-8.04-6.43-12.45-2.42,5.15-6.21,14.16-20.04,13.57-13.87-.59-16.81-12.67-18.76-15.37.96,5.1-2.98,9.82-4.4,14.07h0Z"/><path class="cls-4" d="m353.06,119.06l-90.71-61.91-93.22,63.88c-4.17,2.86-11.21,2.81-13.59-1.3h0c-2.38-4.12-2.66-8.9,1.51-11.76l98.95-67.85c1.87-1.28,4.13-1.88,6.35-1.82,2.23-.06,4.48.54,6.35,1.82l98.4,67.22c3.14,1.39,5.3,4.22,5.3,7.46-.02,23.19-.03,32.57-.05,55.76-3.88,7.4-15.24,7.4-19.34,0l.05-51.51Z"/><path class="cls-1" d="m236.46,144.04h0c-1.37-2.11-2.84-3.51-4.07-6.3-1.07-2.43-1.76-4.14-2.1-7.05-6.19,12.29-16.6,18.47-28.52,11.98-6.1-3.33-7.69-6.74-10.05-12.9-2.82-7.38-12.38-5.49-10.79,3.43,1.87,10.55,12.47,19.6,23.13,22.21,9.17,2.25,19.98-.53,26.5-6.13,1.73-1.48,4.17-3.52,5.9-5.25Z"/><path class="cls-5" d="m285.99,144c7.45,9.01,20.14,14.41,32.67,11.19,9.08-2.33,21.77-13.04,22-23.63.17-7.5-8.22-9.59-11.15-.97-4.54,13.33-17.85,17.62-28.48,11.91-5.76-3.1-7.63-7.03-9.99-12.86h0"/><path class="cls-1" d="m209.04,114.24c-17.85,3.18-13.19,29.3,4.59,26.16,16.1-2.84,12.77-29.26-4.59-26.16Z"/><path class="cls-3" d="m257.99,114.54c-17.33,3.98-11.75,29.48,5.91,25.75,16.26-3.43,11.55-29.76-5.91-25.75Z"/><path class="cls-5" d="m304.64,115.68c-16.3,9.94-3.73,29.3,11.09,24.1,5.44-1.91,9.94-9.88,7.12-17.38-1.95-5.18-10.27-11.56-18.21-6.72h0Z"/><path class="cls-6" d="m279.79,131.31c.24,6.66,3.95,10.16,6.2,12.69,2.24-4.28,4.97-8.29,5.05-14.36-2.51-6.88-10.05-5.76-11.25,1.67h0Z"/><path class="cls-2" d="m230.29,130.7c.34,2.91,1.03,4.62,2.1,7.05,1.23,2.79,2.32,3.97,4.07,6.3,2.93-2.92,5.49-9.43,4.53-14.53-1.8-6.15-9.09-6.29-10.7,1.19Z"/><path class="cls-4" d="m262.8,26.1l-127.92,87.67c-5.72,3.92-15.39,3.86-18.65-1.79h0c-3.26-5.65-3.65-12.21,2.07-16.14l36.85-25.27c0-.14-.01-.27-.01-.41v-29.57c0-4.62,3.78-8.39,8.39-8.39h19.98c4.62,0,8.39,3.78,8.39,8.39v4.78C204.26,36.9,259.78-3.39,263.03.23c5.11-4.2,124.75,81.92,144.73,95.62,5.72,3.92,5.33,10.49,2.07,16.14h0c-3.26,5.65-12.93,5.71-18.65,1.79l-127.92-87.67-.23-.61-.23.61h0Z"/><path class="cls-7" d="m29.53,185.54h8.42v36.16h-8.42v-3.78c-3.69,4.29-8.25,4.9-10.82,4.9-11.17,0-17.52-9.28-17.52-19.24,0-11.77,8.07-18.98,17.61-18.98,2.66,0,7.3.69,10.74,5.15v-4.21Zm-19.76,18.21c0,6.27,3.95,11.51,10.05,11.51,5.33,0,10.22-3.87,10.22-11.42s-4.9-11.68-10.22-11.68c-6.1,0-10.05,5.15-10.05,11.6Z"/><path class="cls-7" d="m72.91,169.8h8.42v51.9h-8.42v-3.78c-3.69,4.29-8.25,4.9-10.82,4.9-11.17,0-17.52-9.28-17.52-19.24,0-11.77,8.07-18.98,17.61-18.98,2.66,0,7.3.69,10.74,5.15v-19.94Zm-19.76,33.95c0,6.27,3.95,11.51,10.05,11.51,5.33,0,10.22-3.87,10.22-11.42s-4.9-11.68-10.22-11.68c-6.1,0-10.05,5.15-10.05,11.6Z"/><path class="cls-7" d="m126.59,203.66c0,11.08-8.42,19.15-19.33,19.15s-19.33-8.07-19.33-19.15,8.42-19.07,19.33-19.07,19.33,7.9,19.33,19.07Zm-8.59.09c0-8.25-5.41-11.6-10.74-11.6s-10.74,3.35-10.74,11.6c0,6.96,4.12,11.51,10.74,11.51s10.74-4.55,10.74-11.51Z"/><path class="cls-7" d="m141.62,169.8v51.9h-8.42v-51.9h8.42Z"/><path class="cls-7" d="m182.51,213.45c-1.55,2.75-3.78,5.15-6.1,6.61-2.92,1.89-6.79,2.75-10.65,2.75-4.81,0-8.76-1.2-12.2-4.64s-5.33-8.42-5.33-13.83,1.98-10.99,5.75-14.86c3.01-3.01,6.96-4.9,12.11-4.9,5.75,0,9.45,2.49,11.6,4.72,4.64,4.81,5.07,11.51,5.07,15.29v1.03h-25.94c.17,2.58,1.29,5.5,3.09,7.3,1.98,1.98,4.38,2.32,6.44,2.32,2.32,0,4.04-.52,5.75-1.8,1.46-1.12,2.58-2.58,3.35-3.95l7.04,3.95Zm-8.33-14.69c-.34-1.98-1.29-3.69-2.58-4.9-1.12-1.03-2.92-2.06-5.67-2.06-2.92,0-4.81,1.2-5.93,2.32-1.2,1.12-2.15,2.83-2.58,4.64h16.75Z"/><path class="cls-7" d="m205.19,195.07c-.86-1.38-2.49-3.09-5.15-3.09-1.2,0-2.06.43-2.58.95-.43.43-.77,1.12-.77,1.89,0,.94.43,1.55,1.2,2.06.52.34,1.03.51,2.83,1.46l4.29,2.15c1.89.94,3.69,1.89,5.07,3.35,1.98,1.98,2.66,4.21,2.66,6.7,0,3.26-1.2,6.1-3.18,8.25-2.83,3.09-6.36,4.04-10.13,4.04-2.32,0-5.24-.34-7.82-2.32-2.06-1.55-3.78-4.04-4.64-6.61l6.87-3.26c.43,1.2,1.2,2.75,1.98,3.44.51.52,1.72,1.37,3.69,1.37,1.29,0,2.66-.43,3.44-1.2.69-.69,1.2-1.8,1.2-2.83s-.34-1.89-1.12-2.75c-1.03-1.03-2.23-1.63-3.61-2.23l-3.09-1.46c-1.63-.77-3.61-1.72-4.98-3.09-1.89-1.8-2.58-3.78-2.58-6.1,0-2.92,1.12-5.75,3.01-7.73,1.63-1.72,4.38-3.44,8.85-3.44,2.58,0,4.64.52,6.7,1.89,1.2.77,2.83,2.15,4.12,4.47l-6.27,4.12Z"/><path class="cls-7" d="m246.16,196.62c-3.87-3.78-7.64-4.47-10.22-4.47-3.95,0-6.44,1.63-7.99,3.18-1.55,1.55-3.09,4.29-3.09,8.33s1.63,7.04,3.26,8.67c1.89,1.8,4.55,2.92,7.64,2.92,3.44,0,7.47-1.38,10.39-4.64v9.36c-2.06,1.29-5.41,2.83-10.99,2.83-6.01,0-10.31-1.72-13.74-5.33-2.58-2.66-5.15-6.96-5.15-13.57s2.83-11.34,5.5-14c2.83-2.83,7.39-5.33,14.52-5.33,2.75,0,6.01.43,9.88,2.58v9.45Z"/><path class="cls-7" d="m284.46,213.45c-1.55,2.75-3.78,5.15-6.1,6.61-2.92,1.89-6.79,2.75-10.65,2.75-4.81,0-8.76-1.2-12.2-4.64s-5.33-8.42-5.33-13.83,1.98-10.99,5.75-14.86c3.01-3.01,6.96-4.9,12.11-4.9,5.75,0,9.45,2.49,11.6,4.72,4.64,4.81,5.07,11.51,5.07,15.29v1.03h-25.94c.17,2.58,1.29,5.5,3.09,7.3,1.98,1.98,4.38,2.32,6.44,2.32,2.32,0,4.04-.52,5.75-1.8,1.46-1.12,2.58-2.58,3.35-3.95l7.04,3.95Zm-8.33-14.69c-.34-1.98-1.29-3.69-2.58-4.9-1.12-1.03-2.92-2.06-5.67-2.06-2.92,0-4.81,1.2-5.93,2.32-1.2,1.12-2.15,2.83-2.58,4.64h16.75Z"/><path class="cls-7" d="m291.25,185.54h8.42v3.35c3.61-4.04,7.73-4.29,9.79-4.29,6.7,0,9.53,3.35,10.65,4.9,1.38,1.98,2.23,4.47,2.23,10.05v22.16h-8.42v-20.1c0-9.19-3.44-9.45-6.61-9.45-3.78,0-7.64.52-7.64,12.2v17.35h-8.42v-36.16Z"/><path class="cls-7" d="m339.52,193.27v28.43h-8.42v-28.43h-3.52v-7.73h3.52v-13.23h8.42v13.23h6.44v7.73h-6.44Z"/><path class="cls-7" d="m381.87,213.45c-1.55,2.75-3.78,5.15-6.1,6.61-2.92,1.89-6.79,2.75-10.65,2.75-4.81,0-8.76-1.2-12.2-4.64s-5.33-8.42-5.33-13.83,1.98-10.99,5.75-14.86c3.01-3.01,6.96-4.9,12.11-4.9,5.75,0,9.45,2.49,11.6,4.72,4.64,4.81,5.07,11.51,5.07,15.29v1.03h-25.94c.17,2.58,1.29,5.5,3.09,7.3,1.98,1.98,4.38,2.32,6.44,2.32,2.32,0,4.04-.52,5.75-1.8,1.46-1.12,2.58-2.58,3.35-3.95l7.04,3.95Zm-8.33-14.69c-.34-1.98-1.29-3.69-2.58-4.9-1.12-1.03-2.92-2.06-5.67-2.06-2.92,0-4.81,1.2-5.93,2.32-1.2,1.12-2.15,2.83-2.58,4.64h16.75Z"/><path class="cls-7" d="m404.54,195.07c-.86-1.38-2.49-3.09-5.15-3.09-1.2,0-2.06.43-2.58.95-.43.43-.77,1.12-.77,1.89,0,.94.43,1.55,1.2,2.06.52.34,1.03.51,2.83,1.46l4.29,2.15c1.89.94,3.69,1.89,5.07,3.35,1.98,1.98,2.66,4.21,2.66,6.7,0,3.26-1.2,6.1-3.18,8.25-2.83,3.09-6.36,4.04-10.13,4.04-2.32,0-5.24-.34-7.82-2.32-2.06-1.55-3.78-4.04-4.64-6.61l6.87-3.26c.43,1.2,1.2,2.75,1.98,3.44.51.52,1.72,1.37,3.69,1.37,1.29,0,2.66-.43,3.44-1.2.69-.69,1.2-1.8,1.2-2.83s-.34-1.89-1.12-2.75c-1.03-1.03-2.23-1.63-3.61-2.23l-3.09-1.46c-1.63-.77-3.61-1.72-4.98-3.09-1.89-1.8-2.58-3.78-2.58-6.1,0-2.92,1.12-5.75,3.01-7.73,1.63-1.72,4.38-3.44,8.85-3.44,2.58,0,4.64.52,6.7,1.89,1.2.77,2.83,2.15,4.12,4.47l-6.27,4.12Z"/><path class="cls-7" d="m20.3,140.09c-2.62-2.57-5.19-3.03-6.94-3.03-2.68,0-4.38,1.11-5.43,2.16s-2.1,2.92-2.1,5.66,1.11,4.78,2.22,5.89c1.28,1.23,3.09,1.98,5.19,1.98,2.33,0,5.08-.93,7.06-3.15v6.36c-1.4.88-3.68,1.93-7.47,1.93-4.08,0-7-1.17-9.34-3.62-1.75-1.81-3.5-4.73-3.5-9.22s1.92-7.7,3.73-9.51c1.92-1.92,5.02-3.62,9.86-3.62,1.87,0,4.08.29,6.71,1.75v6.42Z"/><path class="cls-7" d="m42.3,132.56h5.72v24.56h-5.72v-2.57c-2.51,2.92-5.6,3.33-7.35,3.33-7.59,0-11.9-6.3-11.9-13.07,0-7.99,5.48-12.9,11.96-12.9,1.81,0,4.96.47,7.29,3.5v-2.86Zm-13.42,12.37c0,4.26,2.68,7.82,6.83,7.82,3.62,0,6.94-2.62,6.94-7.76s-3.33-7.94-6.94-7.94c-4.14,0-6.83,3.5-6.83,7.88Z"/><path class="cls-7" d="m64.53,139.04c-.58-.93-1.69-2.1-3.5-2.1-.82,0-1.4.29-1.75.64-.29.29-.53.76-.53,1.28,0,.64.29,1.05.82,1.4.35.23.7.35,1.92.99l2.92,1.46c1.28.64,2.51,1.28,3.44,2.28,1.34,1.34,1.81,2.86,1.81,4.55,0,2.22-.82,4.14-2.16,5.6-1.92,2.1-4.32,2.74-6.89,2.74-1.58,0-3.56-.23-5.31-1.58-1.4-1.05-2.57-2.74-3.15-4.49l4.67-2.22c.29.82.82,1.87,1.34,2.33.35.35,1.17.93,2.51.93.88,0,1.81-.29,2.33-.82.47-.47.82-1.22.82-1.92s-.23-1.28-.76-1.87c-.7-.7-1.52-1.11-2.45-1.52l-2.1-.99c-1.11-.52-2.45-1.17-3.38-2.1-1.28-1.23-1.75-2.57-1.75-4.14,0-1.98.76-3.91,2.04-5.25,1.11-1.17,2.98-2.33,6.01-2.33,1.75,0,3.15.35,4.55,1.28.82.52,1.93,1.46,2.8,3.03l-4.26,2.8Z"/><path class="cls-7" d="m91.31,132.56h5.72v24.56h-5.72v-2.57c-2.51,2.92-5.6,3.33-7.35,3.33-7.59,0-11.9-6.3-11.9-13.07,0-7.99,5.48-12.9,11.96-12.9,1.81,0,4.96.47,7.29,3.5v-2.86Zm-13.42,12.37c0,4.26,2.68,7.82,6.83,7.82,3.62,0,6.94-2.62,6.94-7.76s-3.33-7.94-6.94-7.94c-4.14,0-6.83,3.5-6.83,7.88Z"/><path class="cls-7" d="m166.4,151.52c-1.05,1.87-2.57,3.5-4.14,4.49-1.98,1.28-4.61,1.87-7.24,1.87-3.27,0-5.95-.82-8.29-3.15s-3.62-5.72-3.62-9.39,1.34-7.47,3.91-10.09c2.04-2.04,4.73-3.33,8.23-3.33,3.91,0,6.42,1.69,7.88,3.21,3.15,3.27,3.44,7.82,3.44,10.39v.7h-17.62c.12,1.75.88,3.73,2.1,4.96,1.34,1.34,2.98,1.58,4.38,1.58,1.58,0,2.74-.35,3.91-1.22.99-.76,1.75-1.75,2.28-2.68l4.78,2.68Zm-5.66-9.98c-.23-1.34-.88-2.51-1.75-3.33-.76-.7-1.98-1.4-3.85-1.4-1.98,0-3.27.82-4.03,1.58-.82.76-1.46,1.93-1.75,3.15h11.38Z"/><path class="cls-7" d="m132.86,121.97h5.7v35.16h-5.7v-2.56c-2.5,2.91-5.59,3.32-7.33,3.32-7.56,0-11.87-6.28-11.87-13.03,0-7.97,5.47-12.86,11.93-12.86,1.8,0,4.95.47,7.27,3.49v-13.51Zm-13.38,23c0,4.25,2.68,7.8,6.81,7.8,3.61,0,6.92-2.62,6.92-7.74s-3.32-7.91-6.92-7.91c-4.13,0-6.81,3.49-6.81,7.86Z"/></g></svg>