<svg width="131" height="345" viewBox="0 0 131 345" fill="none" xmlns="http://www.w3.org/2000/svg">
<path d="M93.3521 312.013C102.852 311.085 112.16 310.056 121.272 307.108C121.934 306.894 126.923 304.316 126.908 304.811C126.54 316.202 119.571 330.85 127.485 340.797" stroke="#F39324" stroke-width="7" stroke-linecap="round"/>
<path d="M53.4852 4.38488C44.8707 16.279 34.4039 27.0306 27.6418 40.0673C12.5911 69.0833 8.34846 92.0234 18.829 123.634C26.9315 148.071 40.7975 165.776 66.3572 171.677C83.1446 175.553 96.1062 169.043 106.538 156.988C115.009 147.199 117.7 130.234 108.175 119.928C94.4619 105.091 68.5405 116.359 56.7194 127.313C36.3695 146.171 27.4488 175.345 22.7031 201.632C15.7891 239.93 15.7534 284.639 38.0335 318.358C47.1791 332.2 59.5711 340.302 76.667 337.396C85.9729 335.814 99.3176 329.116 107.021 323.851C131.285 307.265 105.354 322.962 123.827 307.11" stroke="#F39324" stroke-width="7" stroke-linecap="round"/>
</svg>
