<svg width="244" height="280" viewBox="0 0 244 280" fill="none" xmlns="http://www.w3.org/2000/svg">
<path d="M240.635 11.9182C224.069 7.36687 207.01 1.568 189.56 3.11131C167.23 5.08611 142.428 12.7421 123.994 25.428C97.576 43.6092 88.7538 71.3742 91.2488 102.293C92.3148 115.502 96.2519 130.579 107.082 139.276C116.396 146.755 147.696 156.322 148.975 135.959C150.25 115.655 137.954 107.463 119.117 105.265C96.9342 102.676 64.0587 108.586 45.069 120.413C25.4982 132.602 6.83171 162.965 3.35878 185.855C0.601976 204.024 6.8372 227.684 11.6431 245.241C13.7617 252.981 21.4344 277.015 30.2739 277.199" stroke="white" stroke-width="5" stroke-linecap="round"/>
</svg>
